<svg width="137" height="124" viewBox="0 0 137 124" fill="none" xmlns="http://www.w3.org/2000/svg">
<path d="M29.3686 56.7561C31.3078 78.9394 60.2855 118.153 79.7137 115.887C99.1419 113.621 101.63 70.7166 99.7273 48.5333C97.7882 26.3499 80.4821 10.1967 61.0538 12.4625C41.6256 14.7649 27.4295 34.5727 29.3686 56.7561Z" fill="#D3E5CF"/>
<g opacity="0.8">
<path d="M17.2232 99.2586C23.6627 113.109 49.567 116.399 70.5685 111.246C91.57 106.093 124.133 85.9924 117.694 53.2108C115.206 40.4563 102.217 18.0172 59.2628 35.5592C35.4075 45.2804 8.33236 80.1085 17.2232 99.2586Z" fill="#FFDC8D"/>
</g>
<path d="M6.2832 50.543C6.2832 74.517 43.4566 100.72 63.9459 100.72C84.4352 100.72 106.498 74.517 106.498 50.543C106.498 26.5689 97.8629 10.306 67.5681 28.5058C49.3107 39.4696 6.2832 26.5689 6.2832 50.543Z" fill="url(#paint0_linear_38_4316)"/>
<path d="M69.2144 19.6619C71.6292 22.3297 81.2152 21.1968 85.057 16.4824C88.8621 11.768 85.496 5.22627 83.0446 2.59498C80.6298 -0.0728705 75.5441 1.60824 71.7389 6.32265C67.8972 11.0371 66.763 16.994 69.2144 19.6619Z" fill="#FFDC8D"/>
<path d="M14.0026 83.5439C15.1734 80.9857 13.161 73.4938 9.90471 71.4472C6.64838 69.4372 3.39205 73.6034 2.18465 76.1616C1.01383 78.7198 2.69688 82.411 5.95321 84.4575C9.24613 86.5041 12.8318 86.1021 14.0026 83.5439Z" fill="#D3E5CF"/>
<path d="M97.1674 17.5787C96.4357 19.1502 98.0089 24.0108 100.314 25.4361C102.582 26.8613 104.705 24.3031 105.436 22.7317C106.168 21.1602 104.924 18.7116 102.619 17.2863C100.351 15.8611 97.8992 15.9707 97.1674 17.5787Z" fill="#D3E5CF"/>
<path d="M64.458 120.565L63.7629 122.684H62.8848L65.1532 115.996H66.2143L68.5193 122.684H67.6046L66.8729 120.601L64.458 120.565ZM66.6533 119.87L65.9947 117.933C65.8484 117.495 65.7386 117.093 65.6289 116.727H65.5923C65.4825 117.129 65.3727 117.531 65.263 117.933L64.6044 119.87H66.6533Z" fill="#192040"/>
<path d="M71.8488 116.033C72.2879 115.96 72.9099 115.887 73.4953 115.887C74.41 115.887 75.032 116.033 75.4344 116.435C75.7637 116.727 75.9467 117.202 75.9467 117.714C75.9467 118.591 75.3979 119.176 74.7027 119.432V119.468C75.2149 119.651 75.5442 120.126 75.6906 120.82C75.9101 121.771 76.0564 122.392 76.2028 122.648H75.3247C75.2149 122.465 75.0686 121.88 74.8856 121.04C74.6661 120.126 74.3368 119.761 73.5319 119.761H72.7269V122.648H71.8488V116.033ZM72.6903 119.066H73.5685C74.4832 119.066 75.0686 118.555 75.0686 117.787C75.0686 116.91 74.4466 116.545 73.5319 116.545C73.1294 116.545 72.8001 116.581 72.6903 116.618V119.066Z" fill="#192040"/>
<path d="M80.9226 116.654H78.8737V115.923H83.8131V116.654H81.7642V122.611H80.8861L80.9226 116.654Z" fill="#192040"/>
<path d="M88.4598 119.578V120.236H86.0084V119.578H88.4598Z" fill="#192040"/>
<path d="M91.7893 121.515C92.1917 121.734 92.7406 121.953 93.326 121.953C94.2041 121.953 94.7163 121.478 94.7163 120.82C94.7163 120.199 94.3504 119.834 93.4357 119.505C92.3381 119.139 91.6795 118.555 91.6795 117.604C91.6795 116.545 92.521 115.777 93.8382 115.777C94.5334 115.777 95.009 115.923 95.3017 116.106L95.0822 116.8C94.8627 116.691 94.4236 116.471 93.8016 116.471C92.8869 116.471 92.5576 117.02 92.5576 117.495C92.5576 118.116 92.9601 118.408 93.8748 118.774C95.009 119.212 95.5944 119.761 95.5944 120.747C95.5944 121.771 94.8261 122.684 93.2528 122.684C92.5942 122.684 91.899 122.502 91.5332 122.246L91.7893 121.515Z" fill="#192040"/>
<path d="M100.461 116.581H98.4117V115.85H103.351V116.581H101.302V122.538H100.424L100.461 116.581Z" fill="#192040"/>
<path d="M107.339 115.85V119.797C107.339 121.296 107.998 121.917 108.912 121.917C109.9 121.917 110.522 121.259 110.522 119.797V115.85H111.4V119.761C111.4 121.807 110.339 122.648 108.876 122.648C107.522 122.648 106.461 121.88 106.461 119.797V115.85H107.339Z" fill="#192040"/>
<path d="M115.315 115.923C115.828 115.85 116.45 115.777 117.145 115.777C118.389 115.777 119.267 116.069 119.852 116.618C120.438 117.166 120.804 117.933 120.804 119.03C120.804 120.126 120.474 121.003 119.852 121.624C119.23 122.246 118.206 122.575 116.889 122.611C116.267 122.611 115.754 122.575 115.315 122.538V115.923ZM116.193 121.807C116.413 121.844 116.742 121.844 117.072 121.844C118.901 121.844 119.925 120.82 119.925 118.993C119.925 117.422 119.047 116.398 117.218 116.435C116.779 116.435 116.45 116.471 116.193 116.545V121.807Z" fill="#192040"/>
<path d="M125.158 115.777L125.194 122.465H124.316L124.279 115.777H125.158Z" fill="#192040"/>
<path d="M134.78 119.03C134.78 121.332 133.39 122.538 131.67 122.575C129.914 122.575 128.67 121.222 128.633 119.176C128.633 117.056 129.951 115.667 131.743 115.667C133.609 115.667 134.78 117.056 134.78 119.03ZM129.585 119.176C129.585 120.601 130.353 121.88 131.743 121.88C133.097 121.88 133.902 120.601 133.865 119.103C133.865 117.787 133.17 116.398 131.707 116.398C130.316 116.362 129.585 117.678 129.585 119.176Z" fill="#192040"/>
<path d="M24.76 65.8191C25.2356 69.4006 27.9066 71.4106 32.663 71.4106C37.2365 71.4106 39.6147 69.5103 39.6147 66.5135C39.5781 58.912 23.2233 64.7593 23.1867 55.0016C23.1867 50.8719 26.5528 48.1309 31.8946 48.1309C37.456 48.1309 40.8953 50.945 41.2612 55.4401H38.8098C38.5537 52.8454 36.4681 50.3968 31.8581 50.3968C27.87 50.3968 25.6381 52.151 25.6747 54.8919C25.7113 62.2011 42.0295 56.4634 42.0661 66.4039C42.0661 70.6066 38.6634 73.713 32.663 73.713C26.6626 73.713 22.9306 71.0086 22.3086 65.8191H24.76Z" fill="#192040"/>
<path d="M56.2622 48.4599V50.6526L49.3471 50.6892L49.3837 65.7826C49.3837 69.9488 52.1644 70.9721 54.3597 70.9721H56.2622V73.311H54.3231C50.957 73.311 47.0055 71.4837 47.0055 65.7826L46.9689 50.6892H43.2369V48.4964H46.9689L46.9323 41.2969H49.3105L49.3471 48.4964L56.2622 48.4599Z" fill="#192040"/>
<path d="M81.1787 67.3541C78.837 71.1183 75.3246 73.5668 69.7266 73.6034C62.2261 73.6399 56.8111 68.085 56.7745 60.8489C56.7379 53.7225 62.1895 48.0944 69.4339 48.0579C76.8247 48.0213 82.0202 53.6859 82.0202 60.0083C82.0202 60.4103 81.9836 60.8123 81.9836 61.1413C81.947 61.2874 81.947 61.4702 81.947 61.6529L59.3356 61.726C59.7381 67.7926 64.3482 71.2279 69.69 71.2279C74.5928 71.2279 77.3369 69.2544 79.2761 66.0749L81.1787 67.3541ZM59.3722 59.4601L79.5322 59.3871C78.9834 53.7955 74.6294 50.3237 69.4705 50.3237C64.4945 50.3602 59.8845 53.9052 59.3722 59.4601Z" fill="#192040"/>
<path d="M105.619 57.9618L105.656 73.1283H103.241L103.205 58.2541C103.205 53.2474 100.461 50.2872 95.7407 50.2872C90.8379 50.2872 87.6913 53.5763 87.7279 58.9851L87.7645 73.1648H85.3131L85.2399 48.3502H87.6913V52.1144C89.1182 49.8851 91.6428 47.9482 95.9602 47.9117C101.741 47.9482 105.619 51.8586 105.619 57.9618Z" fill="#192040"/>
<path d="M134.451 60.5931C134.487 67.8292 128.889 73.4207 121.718 73.4207C114.474 73.4572 108.876 67.9022 108.876 60.6662C108.839 53.5397 114.401 47.9117 121.645 47.8751C128.78 47.8386 134.414 53.4301 134.451 60.5931ZM111.291 60.7027C111.291 66.55 115.754 71.1183 121.718 71.0817C127.645 71.0817 132.036 66.477 131.999 60.6296C131.999 54.6726 127.536 50.1775 121.645 50.1775C115.681 50.2141 111.291 54.7457 111.291 60.7027Z" fill="#192040"/>
<path d="M52.1644 103.498L52.201 117.056H49.7862L49.6764 83.617H52.0912V88.4776C54.1036 85.3346 57.6892 83.215 62.4456 83.1784C69.5803 83.1419 75.1416 88.7334 75.1416 95.8963C75.1782 103.132 69.6534 108.724 62.5188 108.724C57.7989 108.76 54.2133 106.641 52.1644 103.498ZM51.9815 96.006C51.9815 101.926 56.5184 106.422 62.409 106.385C68.3729 106.385 72.7634 101.78 72.7634 95.9329C72.7634 89.9759 68.2997 85.4808 62.3358 85.4808C56.4818 85.5539 51.9815 90.0856 51.9815 96.006Z" fill="#192040"/>
<path d="M89.1183 85.8097C84.3618 85.8097 80.8494 89.4643 80.8494 94.8731L80.886 108.358H78.4711L78.398 83.5439H80.8128V88.1486C81.7641 86.3213 84.4716 83.1419 89.0817 83.1053L89.1183 85.8097Z" fill="#192040"/>
<path d="M92.3014 76.9656V74.3343H94.7528V76.9656H92.3014ZM92.4112 108.322L92.338 83.5073H94.7894L94.8626 108.322H92.4112Z" fill="#192040"/>
<path d="M119.12 93.0458L119.157 108.212H116.742L116.706 93.3381C116.706 88.3314 113.961 85.3712 109.242 85.3712C104.339 85.3712 101.192 88.6603 101.229 94.0691L101.265 108.249H98.8507L98.7775 83.4342H101.192V87.1984C102.619 84.9692 105.144 83.0322 109.461 82.9957C115.205 83.0322 119.084 86.9426 119.12 93.0458Z" fill="#192040"/>
<path d="M134.085 83.3611V85.5539L127.17 85.5904L127.206 100.684C127.206 104.85 129.987 105.873 132.182 105.873H134.085V108.212H132.146C128.78 108.212 124.828 106.385 124.828 100.684L124.792 85.5904H121.06V83.3977H124.792L124.755 76.1981H127.133L127.17 83.3977L134.085 83.3611Z" fill="#192040"/>
<defs>
<linearGradient id="paint0_linear_38_4316" x1="38.1653" y1="18.019" x2="108.922" y2="130.591" gradientUnits="userSpaceOnUse">
<stop stop-color="#FE4F72"/>
<stop offset="0.54" stop-color="#FFB53D"/>
<stop offset="1" stop-color="#E7BD33"/>
</linearGradient>
</defs>
</svg>
